<svg xmlns="http://www.w3.org/2000/svg" width="76.225" height="27.434" viewBox="0 0 76.225 27.434"><g transform="translate(-10 -5.555)"><path d="M33.054,70.27c-4.96,5.825-9.716,13.049-9.764,18.448a6.392,6.392,0,0,0,2.186,5.148,10.6,10.6,0,0,0,7.16,2.621c3.587.005,7.149-1.442,9.938-2.558C47.272,92.051,99.194,69.5,99.194,69.5c.5-.251.407-.564-.22-.408-.253.063-56.525,15.313-56.525,15.313a12.434,12.434,0,0,1-3.275.469C34.849,84.9,31,82.5,31.032,77.444A16.589,16.589,0,0,1,33.054,70.27Z" transform="translate(-13.29 -63.499)" fill="#043c39" fill-rule="evenodd"/></g></svg>