<svg xmlns="http://www.w3.org/2000/svg" width="94.803" height="14.047" viewBox="0 0 94.803 14.047"><g transform="translate(0 0)" style="isolation:isolate"><g style="isolation:isolate"><path d="M515.841,1040.159l-4.708-.684-2.1-4.267a.334.334,0,0,0-.575,0l-2.106,4.266-4.71.685a.321.321,0,0,0-.178.547l3.408,3.321-.8,4.689a.321.321,0,0,0,.465.338l4.212-2.214,4.212,2.213a.321.321,0,0,0,.465-.338l-.8-4.689,3.408-3.321a.321.321,0,0,0-.178-.547Z" transform="translate(-501.362 -1035.044)" fill="#651fde"/></g><g transform="translate(20.012)" style="isolation:isolate"><path d="M538.486,1040.159l-4.708-.684-2.1-4.267a.334.334,0,0,0-.575,0l-2.106,4.266-4.71.685a.321.321,0,0,0-.178.547l3.408,3.321-.8,4.689a.321.321,0,0,0,.465.338l4.211-2.214,4.212,2.213a.321.321,0,0,0,.465-.338l-.8-4.689,3.408-3.321a.321.321,0,0,0-.178-.547Z" transform="translate(-524.008 -1035.044)" fill="#651fde"/></g><g transform="translate(40.025)" style="isolation:isolate"><path d="M561.131,1040.159l-4.708-.684-2.1-4.267a.334.334,0,0,0-.575,0l-2.106,4.266-4.71.685a.321.321,0,0,0-.178.547l3.408,3.321-.8,4.689a.321.321,0,0,0,.465.338l4.212-2.214,4.212,2.213a.321.321,0,0,0,.465-.338l-.8-4.689,3.408-3.321a.321.321,0,0,0-.178-.547Z" transform="translate(-546.653 -1035.044)" fill="#651fde"/></g><g transform="translate(60.037)" style="isolation:isolate"><path d="M583.776,1040.159l-4.708-.684-2.1-4.267a.334.334,0,0,0-.575,0l-2.106,4.266-4.71.685a.321.321,0,0,0-.178.547l3.408,3.321-.8,4.689a.321.321,0,0,0,.465.338l4.211-2.214,4.212,2.213a.321.321,0,0,0,.465-.338l-.8-4.689,3.408-3.321a.321.321,0,0,0-.178-.547Z" transform="translate(-569.298 -1035.044)" fill="#651fde"/></g><g transform="translate(80.05)" style="isolation:isolate"><path d="M606.422,1040.159l-4.708-.684-2.1-4.267a.334.334,0,0,0-.575,0l-2.106,4.266-4.71.685a.321.321,0,0,0-.178.547l3.408,3.321-.8,4.689a.32.32,0,0,0,.465.338l4.212-2.214,4.212,2.213a.321.321,0,0,0,.465-.338l-.8-4.689,3.408-3.321a.321.321,0,0,0-.178-.547Z" transform="translate(-591.943 -1035.044)" fill="#651fde"/></g></g></svg>